<?xml version="1.0" encoding="utf-8" ?>
<svg xmlns="http://www.w3.org/2000/svg" xmlns:xlink="http://www.w3.org/1999/xlink" width="600" height="600">
	<path fill="#AC3D36" d="M289.58 9.49822Q293.024 9.37284 296.469 9.32802Q299.915 9.28321 303.361 9.31897Q306.806 9.35473 310.25 9.47106Q313.694 9.58739 317.135 9.78421Q320.575 9.98104 324.01 10.2583Q327.444 10.5355 330.872 10.8929Q334.299 11.2504 337.717 11.6879Q341.135 12.1254 344.542 12.6427Q347.949 13.16 351.343 13.7569Q354.737 14.3537 358.116 15.0297Q361.495 15.7057 364.857 16.4606Q368.219 17.2155 371.563 18.0487Q374.906 18.882 378.23 19.7932Q381.553 20.7044 384.854 21.6931Q388.155 22.6818 391.432 23.7474Q394.709 24.813 397.96 25.955Q401.211 27.0969 404.435 28.3146Q407.659 29.5322 410.853 30.8249Q414.047 32.1176 417.21 33.4847Q420.374 34.8517 423.504 36.2923Q426.634 37.733 429.73 39.2464Q432.826 40.7599 435.885 42.3453Q438.945 43.9307 441.967 45.5872Q444.988 47.2437 447.97 48.9704Q450.952 50.6972 453.893 52.4932Q456.834 54.2891 459.732 56.1534Q462.63 58.0177 465.484 59.9492Q468.338 61.8807 471.146 63.8784Q473.953 65.8761 476.714 67.939Q479.474 70.0018 482.185 72.1286Q484.896 74.2554 487.557 76.445Q490.218 78.6347 492.827 80.8859Q495.182 82.9395 497.492 85.0432Q499.802 87.147 502.066 89.2999Q504.33 91.4528 506.547 93.6539Q508.765 95.855 510.934 98.1032Q513.104 100.351 515.225 102.646Q517.345 104.94 519.416 107.28Q521.487 109.619 523.507 112.003Q525.528 114.386 527.496 116.812Q529.464 119.239 531.38 121.707Q533.296 124.175 535.158 126.683Q537.021 129.192 538.829 131.74Q540.637 134.288 542.389 136.875Q544.142 139.461 545.839 142.085Q547.536 144.708 549.176 147.368Q550.816 150.027 552.398 152.721Q553.98 155.415 555.504 158.142Q557.029 160.87 558.494 163.629Q559.959 166.389 561.364 169.179Q562.77 171.97 564.115 174.79Q565.46 177.61 566.744 180.458Q568.028 183.306 569.251 186.181Q570.474 189.056 571.634 191.957Q572.795 194.858 573.893 197.783Q574.991 200.708 576.026 203.656Q577.06 206.604 578.032 209.574Q579.003 212.544 579.91 215.533Q580.817 218.523 581.66 221.532Q582.502 224.54 583.28 227.566Q584.058 230.592 584.77 233.634Q585.483 236.676 586.13 239.733Q586.777 242.79 587.358 245.86Q587.939 248.929 588.454 252.011C589.765 259.913 591.111 267.872 591.665 275.87C592.475 287.565 592.972 299.701 592.567 311.418Q592.395 316.455 592.048 321.483Q591.701 326.511 591.179 331.524Q590.657 336.537 589.961 341.529Q589.265 346.521 588.395 351.485Q587.525 356.45 586.482 361.381Q585.44 366.312 584.226 371.204Q583.013 376.096 581.63 380.942Q580.246 385.789 578.695 390.584Q577.144 395.379 575.426 400.118Q573.709 404.856 571.827 409.532Q569.946 414.208 567.903 418.815Q565.859 423.422 563.657 427.956Q561.454 432.489 559.095 436.943Q556.735 441.397 554.223 445.765Q551.71 450.134 549.046 454.413Q546.382 458.692 543.571 462.875C537.643 471.639 531.652 480.389 524.686 488.368C517.797 496.257 510.752 504.261 503.174 511.489Q501.11 513.452 499.008 515.375Q496.907 517.297 494.768 519.179Q492.629 521.06 490.455 522.9Q488.28 524.74 486.07 526.537Q483.86 528.334 481.616 530.089Q479.372 531.843 477.094 533.553Q474.816 535.263 472.505 536.929Q470.195 538.594 467.852 540.215Q465.51 541.836 463.136 543.411Q460.763 544.986 458.359 546.514Q455.956 548.043 453.523 549.524Q451.09 551.006 448.629 552.44Q446.168 553.875 443.68 555.261Q441.191 556.647 438.677 557.985Q436.162 559.323 433.622 560.612Q431.081 561.9 428.517 563.14Q425.952 564.379 423.364 565.568Q420.775 566.758 418.165 567.897Q415.554 569.036 412.921 570.124Q410.289 571.212 407.636 572.249Q404.983 573.286 402.31 574.271Q399.637 575.256 396.946 576.189Q394.255 577.122 391.546 578.003Q388.837 578.884 386.112 579.712Q383.387 580.541 380.646 581.316Q377.905 582.091 375.149 582.813Q372.394 583.535 369.625 584.203Q366.856 584.871 364.075 585.486Q361.293 586.101 358.5 586.661Q355.708 587.222 352.905 587.728Q350.101 588.234 347.289 588.686Q344.477 589.138 341.656 589.535C332.354 590.861 322.919 591.433 313.549 592.065Q313.041 592.106 312.533 592.139C304.084 592.683 295.566 592.117 287.121 591.759Q284.064 591.626 281.011 591.429Q277.958 591.231 274.91 590.969Q271.862 590.707 268.82 590.381Q265.778 590.054 262.744 589.663Q259.709 589.272 256.684 588.817Q253.659 588.362 250.644 587.843Q247.628 587.324 244.625 586.741Q241.622 586.158 238.631 585.512Q235.641 584.866 232.665 584.156Q229.689 583.447 226.729 582.674Q223.768 581.902 220.825 581.067Q217.882 580.232 214.957 579.335Q212.032 578.438 209.127 577.479Q206.221 576.52 203.337 575.5Q200.453 574.479 197.591 573.398Q194.729 572.317 191.89 571.176Q189.052 570.034 186.238 568.833Q183.424 567.631 180.637 566.371Q177.849 565.11 175.089 563.791Q172.328 562.471 169.597 561.094Q166.865 559.716 164.163 558.281Q161.461 556.846 158.79 555.353Q156.119 553.861 153.481 552.313Q150.842 550.765 148.237 549.161Q145.631 547.557 143.061 545.898Q140.49 544.239 137.955 542.526Q135.42 540.814 132.922 539.047Q130.423 537.281 127.963 535.463Q125.503 533.644 123.082 531.774Q120.661 529.903 118.28 527.982Q115.899 526.061 113.559 524.09Q111.219 522.118 108.922 520.098Q106.584 518.043 104.291 515.938Q101.998 513.834 99.7496 511.681Q97.5018 509.527 95.3003 507.327Q93.0989 505.126 90.945 502.879Q88.791 500.632 86.6855 498.34Q84.58 496.047 82.524 493.71Q80.4679 491.373 78.4622 488.993Q76.4565 486.613 74.502 484.19Q72.5476 481.767 70.6453 479.304Q68.743 476.84 66.8938 474.336Q65.0445 471.832 63.2491 469.29Q61.4537 466.747 59.713 464.166Q57.9723 461.586 56.2871 458.969Q54.6019 456.352 52.9729 453.699Q51.344 451.047 49.772 448.36Q48.2 445.674 46.6858 442.954Q45.1715 440.235 43.7156 437.484Q42.2598 434.732 40.8629 431.951Q39.4661 429.169 38.129 426.358Q36.7919 423.547 35.5151 420.709Q34.2383 417.87 33.0224 415.004Q31.8065 412.139 30.652 409.248Q29.4976 406.358 28.4051 403.443Q27.3126 400.528 26.2825 397.591Q25.2525 394.654 24.2854 391.695Q23.3183 388.736 22.4146 385.758Q21.5109 382.779 20.671 379.782Q19.8311 376.785 19.0553 373.77Q18.2796 370.756 17.5683 367.725Q16.8571 364.695 16.2107 361.65Q15.5644 358.606 14.9831 355.548Q14.4019 352.49 13.8861 349.42C12.5626 341.349 11.1395 333.196 10.6459 325.026C10.0134 314.557 9.35543 303.707 9.61144 293.226Q9.70387 290.36 9.85166 287.496Q9.99945 284.632 10.2025 281.772Q10.4056 278.911 10.664 276.055Q10.9223 273.199 11.2358 270.348Q11.5493 267.498 11.9177 264.654Q12.2862 261.81 12.7096 258.974Q13.133 256.138 13.6111 253.31Q14.0892 250.482 14.6218 247.665Q15.1545 244.847 15.7415 242.04Q16.3285 239.233 16.9696 236.438Q17.6107 233.643 18.3057 230.86Q19.0007 228.078 19.7493 225.31Q20.498 222.542 21.3 219.789Q22.102 217.035 22.957 214.298Q23.812 211.561 24.7198 208.84Q25.6276 206.12 26.5877 203.418Q27.5479 200.716 28.5601 198.033Q29.5723 195.35 30.6361 192.687Q31.7 190.024 32.8151 187.382Q33.9302 184.74 35.0961 182.12Q36.2621 179.5 37.4784 176.903Q38.6948 174.306 39.9611 171.733Q41.2274 169.16 42.5432 166.612Q43.859 164.064 45.2237 161.542Q46.5885 159.02 48.0018 156.524Q49.415 154.029 50.8762 151.561Q52.3374 149.094 53.846 146.655Q55.3546 144.216 56.9101 141.807Q58.4655 139.398 60.0673 137.019Q61.669 134.641 63.3163 132.293Q64.9637 129.946 66.6561 127.631Q68.3486 125.316 70.0854 123.034C75.3947 116.038 81.476 109.427 87.3057 102.852C100.312 88.1836 117.225 73.91 133.294 62.6719Q136.582 60.3414 139.933 58.1032Q143.284 55.865 146.695 53.7207Q150.107 51.5765 153.578 49.5279Q157.048 47.4793 160.573 45.5279Q164.099 43.5765 167.678 41.7238Q171.256 39.8711 174.885 38.1186Q178.514 36.3661 182.19 34.7151Q185.866 33.064 189.586 31.5158Q193.307 29.9676 197.069 28.5233Q200.831 27.079 204.632 25.7399Q208.432 24.4007 212.269 23.1677Q216.105 21.9346 219.975 20.8087Q223.844 19.6827 227.743 18.6647Q231.642 17.6467 235.568 16.7374Q239.494 15.8281 243.443 15.0282Q247.393 14.2284 251.363 13.5386C263.186 11.4941 277.552 10.2179 289.58 9.49822ZM145.634 176.396C141.595 174.081 136.429 167.755 132.912 164.264C125.776 157.182 118.511 150.208 111.432 143.072C108.284 139.898 105.645 136.049 101.618 133.928C96.1335 138.837 89.9102 149.109 85.7349 155.359Q83.747 158.304 81.8385 161.301Q79.9299 164.298 78.1022 167.344Q76.2745 170.391 74.5288 173.486Q72.7831 176.58 71.1208 179.72Q69.4584 182.86 67.8806 186.044Q66.3028 189.227 64.8106 192.452Q63.3184 195.676 61.9129 198.939Q60.5074 202.202 59.1896 205.502Q57.8718 208.802 56.6427 212.135Q55.4135 215.469 54.2739 218.834Q53.1343 222.199 52.085 225.594Q51.0357 228.988 50.0775 232.41Q49.1193 235.831 48.2529 239.277Q47.3865 242.722 46.6125 246.19Q45.8385 249.658 45.1574 253.145Q44.4763 256.632 43.8887 260.136C42.9491 265.868 42.5199 271.708 41.9881 277.489C41.5259 282.514 40.9306 287.564 40.6498 292.602C40.2135 300.431 40.6559 308.418 41.1337 316.236Q41.3692 320.159 41.7233 324.073Q42.0773 327.987 42.5497 331.888Q43.022 335.79 43.6122 339.675Q44.2024 343.561 44.9099 347.427Q45.6174 351.292 46.4416 355.135Q47.2657 358.977 48.2058 362.793Q49.1458 366.609 50.2009 370.395Q51.256 374.181 52.4252 377.933Q53.5943 381.685 54.8765 385.4Q56.1586 389.115 57.5526 392.789Q58.9466 396.464 60.4511 400.094Q61.9556 403.725 63.5693 407.308Q65.183 410.892 66.9044 414.425Q68.6258 417.958 70.4533 421.437Q72.2809 424.916 74.2128 428.338Q76.1448 431.761 78.1794 435.123C85.2764 446.965 93.1473 458.346 102.305 468.714Q103.266 469.791 104.383 470.705C107.798 466.588 111.821 462.909 115.606 459.132L132.622 442.062Q136.544 438.166 140.397 434.201C142.22 432.291 144 430.009 146.109 428.425C147.939 428.886 162.883 444.453 165.547 447.046Q168.372 449.766 171.308 452.365Q174.243 454.965 177.285 457.439Q180.327 459.914 183.469 462.26Q186.611 464.606 189.849 466.818Q193.086 469.031 196.413 471.107Q199.74 473.182 203.15 475.117Q206.561 477.053 210.049 478.844Q213.537 480.635 217.097 482.279C222.479 484.704 228.089 486.662 233.632 488.682C238.436 490.432 243.271 492.359 248.21 493.696C258.361 496.445 272.664 498.851 283.204 499.811C292.477 500.657 301.955 500.337 311.259 500.263C317.859 500.02 324.154 498.986 330.654 497.899C337.152 496.813 343.774 495.844 350.165 494.239C355.221 492.97 360.175 491.039 365.088 489.309C371.203 487.155 377.403 485.099 383.298 482.386C389.457 479.552 395.391 475.967 401.253 472.559C407.714 468.802 414.029 465.034 419.841 460.296C426.411 454.94 432.446 448.91 438.374 442.863C442.003 439.162 445.568 435.304 449.473 431.89C452.085 434.308 454.172 437.266 456.691 439.801L483.389 466.323C486.65 469.53 489.692 473.36 493.429 476.012C501.045 467.92 507.6 459.433 513.959 450.341Q515.437 448.229 516.872 446.087Q518.308 443.946 519.7 441.776Q521.092 439.606 522.441 437.409Q523.789 435.212 525.094 432.988Q526.398 430.765 527.658 428.515Q528.918 426.266 530.132 423.992Q531.347 421.718 532.516 419.42Q533.685 417.122 534.807 414.802Q535.93 412.481 537.006 410.138Q538.082 407.796 539.111 405.432Q540.14 403.068 541.121 400.684Q542.103 398.3 543.037 395.897Q543.97 393.494 544.856 391.073Q545.741 388.652 546.578 386.214Q547.415 383.775 548.203 381.321Q548.991 378.866 549.73 376.396Q550.469 373.926 551.158 371.442Q551.847 368.958 552.486 366.46Q553.126 363.963 553.715 361.453Q554.305 358.943 554.844 356.422Q555.383 353.901 555.872 351.37Q556.36 348.839 556.798 346.298Q557.236 343.758 557.623 341.209Q558.01 338.66 558.346 336.104Q558.682 333.548 558.967 330.986Q559.252 328.423 559.485 325.856Q559.719 323.289 559.901 320.717Q560.083 318.146 560.214 315.571Q560.345 312.996 560.424 310.419Q560.503 307.842 560.531 305.265Q560.559 302.687 560.535 300.109Q560.511 297.531 560.436 294.954C560.261 289.167 560.254 283.314 559.729 277.551C555.547 231.599 538.143 183.885 510.172 147.103C506.465 142.229 500.441 133.322 496.207 129.474C495.78 129.085 495.429 128.818 494.874 128.637C490.362 132.066 486.31 136.956 482.298 140.997L457.618 165.555C455.322 167.843 453.293 170.398 450.952 172.628C450.869 172.564 450.785 172.501 450.703 172.436C446.822 169.344 443.359 164.915 439.826 161.363C433.04 154.542 426.13 148.191 418.628 142.146C412.954 137.575 406.496 134.073 400.222 130.405C395.591 127.698 390.966 124.836 386.154 122.464C381.009 119.928 375.632 117.983 370.256 116.007C364.356 113.839 358.412 111.52 352.348 109.859C345.78 108.06 339.141 106.993 332.437 105.851C327.736 105.05 322.94 104.006 318.19 103.62C309.793 102.939 301.208 103.063 292.789 103.28Q290.756 103.337 288.725 103.437Q286.693 103.537 284.664 103.68Q282.635 103.823 280.61 104.008Q278.585 104.194 276.564 104.423Q274.542 104.651 272.527 104.922Q270.511 105.193 268.501 105.507Q266.492 105.821 264.489 106.177Q262.487 106.533 260.492 106.931Q258.498 107.329 256.512 107.77Q254.527 108.21 252.551 108.692Q250.575 109.175 248.61 109.699Q246.644 110.222 244.691 110.788Q242.737 111.353 240.795 111.96Q238.854 112.566 236.926 113.213Q234.998 113.861 233.084 114.549Q231.17 115.237 229.271 115.965Q227.372 116.693 225.488 117.461Q223.605 118.23 221.739 119.038Q219.872 119.845 218.023 120.693Q216.174 121.54 214.343 122.426Q212.512 123.312 210.701 124.236Q208.889 125.161 207.097 126.123Q205.306 127.086 203.535 128.086Q201.764 129.086 200.014 130.124Q198.265 131.161 196.538 132.236Q194.811 133.31 193.107 134.42Q191.403 135.531 189.723 136.677Q188.043 137.823 186.387 139.004Q184.731 140.186 183.101 141.402Q181.471 142.618 179.867 143.869Q178.263 145.119 176.685 146.403Q175.108 147.687 173.558 149.004C166.792 154.859 160.57 161.332 154.313 167.72C151.545 170.547 148.787 174.028 145.634 176.396ZM441.089 119.228C443.651 121.38 446.205 123.521 448.874 125.54C456.26 118.573 463.125 110.991 470.479 103.955C462.018 97.5939 453.877 90.7817 445.06 84.9091Q441.875 82.8064 438.632 80.7959Q435.388 78.7854 432.088 76.8688Q428.788 74.9522 425.434 73.131Q422.08 71.3098 418.676 69.5856Q415.271 67.8613 411.819 66.2354Q408.366 64.6095 404.868 63.0833Q401.371 61.5571 397.83 60.1319Q394.29 58.7066 390.711 57.3835Q387.131 56.0604 383.515 54.8404Q379.899 53.6205 376.25 52.5048Q372.6 51.3891 368.92 50.3785Q365.24 49.368 361.533 48.4633Q357.825 47.5587 354.093 46.7608Q350.361 45.9629 346.608 45.2724Q342.855 44.5818 339.083 43.9992Q335.312 43.4166 331.525 42.9424Q329.102 42.6537 326.675 42.4105Q324.247 42.1673 321.815 41.9698Q319.383 41.7723 316.948 41.6205Q314.513 41.4686 312.075 41.3626Q309.638 41.2565 307.199 41.1963Q304.76 41.1361 302.32 41.1216Q299.88 41.1072 297.44 41.1386Q295.001 41.17 292.562 41.2473Q290.123 41.3245 287.686 41.4475Q285.25 41.5706 282.816 41.7393Q280.382 41.9081 277.951 42.1226Q275.521 42.337 273.095 42.5971Q270.669 42.8572 268.248 43.1628Q265.828 43.4684 263.413 43.8194Q260.999 44.1704 258.591 44.5667Q256.184 44.9631 253.784 45.4045Q251.384 45.846 248.994 46.3324Q246.603 46.8189 244.221 47.3502Q241.84 47.8814 239.469 48.4574Q237.098 49.0333 234.739 49.6536Q232.379 50.274 230.031 50.9385Q227.684 51.6031 225.349 52.3116Q223.014 53.0202 220.693 53.7724Q218.372 54.5247 216.066 55.3204Q213.759 56.1162 211.468 56.9551Q209.177 57.794 206.902 58.6758Q204.627 59.5576 202.369 60.482Q200.111 61.4064 197.871 62.373Q195.631 63.3396 193.409 64.3482Q191.187 65.3567 188.985 66.4068Q186.783 67.4569 184.601 68.5482Q182.418 69.6394 180.257 70.7715C175.751 73.1355 171.122 75.4477 166.788 78.116C161.488 81.3792 156.428 85.0041 151.326 88.5613C147.298 91.3697 143.148 94.1 139.3 97.1545C134.576 100.905 130.306 105.185 125.535 108.913C130.404 113.28 134.975 117.875 139.556 122.541C141.992 125.023 144.308 127.761 146.988 129.978C153.179 126.065 159.201 119.446 165.271 114.926C169.142 112.042 173.376 109.617 177.506 107.129Q186.988 101.398 196.597 95.8835C204.428 91.821 212.728 88.7566 221 85.7264C226.541 83.6968 232.038 81.5152 237.714 79.8818Q240.863 79.0044 244.036 78.2166Q247.21 77.4288 250.404 76.7312Q253.598 76.0336 256.81 75.4267Q260.023 74.8199 263.251 74.3043Q266.48 73.7888 269.721 73.3649Q272.963 72.941 276.216 72.6091Q279.468 72.2772 282.729 72.0376Q285.989 71.798 289.255 71.6509Q292.521 71.5037 295.79 71.4492Q299.059 71.3946 302.328 71.4327Q305.598 71.4708 308.864 71.6015Q312.131 71.7322 315.393 71.9554Q318.654 72.1786 321.909 72.4941Q325.163 72.8096 328.407 73.2172Q331.65 73.6248 334.881 74.1241Q338.112 74.6234 341.328 75.2141C349.376 76.6422 357.293 78.0323 365.1 80.5067C370.454 82.204 375.707 84.2322 380.993 86.131C386.411 88.0776 392.087 89.9393 397.287 92.4003C404.341 95.7386 411.069 99.8664 417.823 103.764C422.639 106.543 427.593 109.202 432.198 112.324C435.33 114.447 438.037 117.037 441.089 119.228ZM148.464 474.595C144.491 477.353 138.931 484.484 135.188 488.242C133.219 490.219 129.224 492.398 128.194 494.934C129.006 497.204 134.555 500.835 136.62 502.446C141.872 506.545 147.051 510.895 152.459 514.778C156.935 517.992 161.809 520.773 166.542 523.597C173.003 527.453 179.489 531.367 186.294 534.593C194.544 538.503 203.029 542.36 211.604 545.498Q213.984 546.366 216.38 547.188Q218.776 548.01 221.188 548.785Q223.6 549.56 226.026 550.288Q228.453 551.016 230.893 551.697Q233.333 552.377 235.786 553.011Q238.238 553.644 240.703 554.229Q243.168 554.815 245.643 555.352Q248.119 555.89 250.605 556.379Q253.09 556.868 255.585 557.309Q258.079 557.75 260.582 558.142Q263.085 558.534 265.595 558.878Q268.104 559.221 270.621 559.516Q273.137 559.811 275.658 560.057Q278.179 560.302 280.705 560.499Q283.23 560.696 285.759 560.843Q288.288 560.991 290.82 561.089Q293.351 561.188 295.884 561.237Q298.417 561.286 300.95 561.286Q303.483 561.286 306.016 561.237Q308.549 561.188 311.08 561.09Q313.611 560.991 316.14 560.844Q318.669 560.696 321.195 560.499Q323.72 560.303 326.242 560.057Q328.763 559.811 331.279 559.517Q333.795 559.222 336.305 558.878Q338.815 558.535 341.318 558.143Q343.82 557.75 346.315 557.31Q348.809 556.869 351.295 556.38Q353.781 555.891 356.256 555.353Q358.732 554.816 361.197 554.23Q363.661 553.645 366.114 553.012Q368.567 552.379 371.007 551.698C378.947 549.505 386.743 546.643 394.492 543.858C401.441 541.36 407.923 538.255 414.536 534.985C420.257 532.157 426.026 529.399 431.562 526.218C438.258 522.371 444.803 517.748 451.137 513.333C456.798 509.492 463.668 505.262 468.064 499.952C464.024 495.343 459.423 491.345 455.085 487.03C453.088 485.043 451.356 482.737 449.279 480.846C448.567 480.199 447.88 479.641 446.999 479.246C444.035 480.052 436.107 487.775 432.902 490.015C427.462 493.818 421.629 497.038 415.867 500.32C410.548 503.35 405.224 506.466 399.78 509.263C392.672 512.915 384.946 515.371 377.434 518.047Q375.091 518.896 372.73 519.692Q370.369 520.489 367.991 521.234Q365.613 521.979 363.219 522.671Q360.825 523.363 358.417 524.002Q356.008 524.642 353.586 525.228Q351.164 525.814 348.73 526.347Q346.296 526.88 343.85 527.359Q341.405 527.838 338.95 528.263Q336.494 528.688 334.03 529.059Q331.566 529.43 329.094 529.747Q326.623 530.064 324.145 530.326Q321.666 530.589 319.183 530.796Q316.7 531.004 314.213 531.157Q311.726 531.31 309.236 531.408Q306.746 531.507 304.254 531.55Q301.763 531.594 299.271 531.582Q296.779 531.571 294.288 531.505Q291.797 531.439 289.308 531.318Q286.819 531.197 284.333 531.021Q281.848 530.845 279.366 530.615Q276.885 530.385 274.409 530.1Q271.934 529.815 269.465 529.476Q266.997 529.137 264.536 528.743Q262.075 528.35 259.624 527.902Q257.172 527.455 254.732 526.953Q252.291 526.452 249.861 525.897Q247.432 525.342 245.015 524.734Q242.599 524.125 240.196 523.464Q237.794 522.803 235.406 522.089Q233.019 521.375 230.648 520.609Q228.277 519.842 225.923 519.024Q223.569 518.206 221.234 517.336C209.809 513.119 201.446 509.778 190.797 503.682C182.711 499.054 174.256 494.476 166.697 489.021C162.676 486.12 151.701 475.509 148.464 474.595Z"/>
	<path fill="#AC3D36" d="M271.842 228.405C272.238 228.539 272.655 228.715 272.971 228.997C274.474 230.341 274.436 234.745 274.614 236.708C280.499 236.87 286.966 237.267 292.779 236.432Q293.373 235.647 293.993 234.882C297.444 230.637 303.974 230.368 309.028 229.835L309.203 236.776C314.188 237.207 324.044 237.175 328.756 236.048C328.821 233.373 328.888 231.011 329.578 228.404C330.993 228.948 332.715 229.6 333.935 230.496C335.905 231.944 336.557 234.066 336.849 236.389C337.354 240.408 338.652 247.489 335.885 250.821C334.504 252.483 332.038 253.388 329.93 253.549C326.391 252.348 328.868 248.643 327.058 246.536C326.446 245.823 325.332 245.528 324.43 245.448C321.108 245.152 317.072 246.01 314.558 248.258C311.725 250.791 311.16 254.754 310.865 258.348C310.594 261.657 311.053 265.28 311.153 268.608Q311.441 278.678 311.517 288.752Q311.845 315.756 312.692 342.749C312.852 347.09 313.269 351.419 313.449 355.76Q314.19 374.868 314.583 393.986L315.2 416.872C315.322 421.759 315.558 426.714 315.248 431.592C314.316 436.175 311.773 440.81 309.928 445.115Q305.943 454.266 302.316 463.565C299.14 459.303 288.764 436.978 287.823 431.604C286.991 426.853 287.33 421.817 287.438 417.014L287.94 397.122C288.3 376.278 289.31 355.502 290.065 334.671C290.677 317.796 291.04 300.865 291.353 283.98L291.542 267.692C291.614 262.585 292.608 257.02 291.011 252.08C290.227 249.653 288.847 247.45 286.479 246.322C284.224 245.249 279.028 244.808 276.702 245.875C275.399 246.473 274.351 252.719 273.827 254.311C271.132 253.64 269.111 252.963 267.483 250.524C265.152 247.033 265.223 241.439 266.037 237.437C266.824 233.565 268.537 230.593 271.842 228.405ZM298.61 447.694L299.638 448.607L299.887 448.445C300.762 441.087 300.07 433.314 300.073 425.883L300.203 381.982Q300.334 345.925 300.046 309.868C300.065 293.247 300.431 276.584 299.648 259.965L295.246 258.423C295.914 263.297 295.576 268.447 295.521 273.363L295.233 295.788C294.753 329.1 293.366 362.346 292.389 395.642C292.059 406.888 290.547 420.036 291.849 431.046C292.335 435.153 295.722 444.845 298.61 447.694Z"/>
	<path fill="#AC3D36" d="M123.142 254.247C126.716 254.89 130.198 256.123 133.725 256.988L157.31 262.677L209.979 275.319Q230.579 280.281 251.127 285.455C257.562 287.062 264.751 287.978 270.795 290.765C272.292 293.467 272.271 302.654 272.203 306.092L229.44 305.55L193.692 305.175C185.562 305.082 167.894 305.444 160.751 303.323C156.645 302.104 153.182 298.931 150.245 295.95C146.784 292.008 143.46 287.694 140.936 283.096Q146.472 284.535 152.132 285.355C167.989 287.646 183.985 288.997 199.879 291.016L233.138 295.376C237.302 295.946 255.678 299.118 258.142 298.647L258.373 298.283C257.802 297.265 256.77 296.956 255.695 296.675C253.173 296.017 250.424 295.761 247.842 295.364Q240.437 294.248 233.056 292.987L172.846 282.894C163.79 281.407 147.67 278.97 139.463 275.731C137.571 274.985 135.787 273.632 134.257 272.307C129.91 268.538 123.528 260.09 123.142 254.247Z"/>
	<path fill="#AC3D36" d="M478.745 254.064L479.067 254.254C479.209 254.838 479.284 254.844 479.071 255.459C477.581 259.758 469.346 271.373 465.495 273.701C455.789 279.57 428.702 282.846 416.718 284.844L370.497 292.338C362.078 293.661 349.246 294.824 341.81 298.539C350.192 298.682 358.908 296.51 367.249 295.557C393.889 292.513 420.442 288.631 447.09 285.653C450.388 285.284 456.898 283.412 459.812 284.007L459.857 284.494C458.496 288.166 453.853 292.566 451.236 295.678C448.336 298.518 444.33 302.269 440.331 303.4C431.665 305.849 410.722 305.102 400.903 305.158L342.446 305.728C338.063 305.809 333.668 305.593 329.294 305.749C329.236 302.784 329.136 293.909 330.531 291.581C331.114 290.609 332.234 290.344 333.258 290.003C337.359 288.641 341.756 287.849 345.964 286.856C351.971 285.437 357.968 283.892 363.948 282.36Q404.895 271.974 445.951 262.028C456.833 259.336 468.004 257.226 478.745 254.064Z"/>
	<path fill="#AC3D36" d="M97.2743 199.501C100.789 199.391 107.32 201.84 110.898 202.747L137.886 209.437L220.838 229.924C231.886 232.676 243.187 234.9 254.128 238.008C255.036 238.266 255.695 238.547 256.147 239.426C257.774 242.596 255.705 248.409 258.72 253.493C262.207 259.376 272.728 259.771 278.936 259.945C281.101 260.006 283.487 259.758 285.582 260.321C286.319 261.291 286.311 262.471 286.364 263.666C286.817 273.774 286.025 284.049 285.74 294.166L284.335 347.686C284.232 348.275 284.152 348.902 283.915 349.454C283.663 350.043 283.7 350.039 283.079 350.295C282.833 350.182 282.69 350.137 282.482 349.926C281.535 348.968 281.263 347.074 281.085 345.807C280.277 340.059 280.344 334.037 279.832 328.229C278.289 310.737 276.974 293.171 275.123 275.713C262.65 274.44 250.217 270.384 241.864 260.558C238.832 256.992 238.1 254.119 233.315 252.331C223.472 248.653 213.012 245.928 202.941 242.889C183.931 237.151 164.833 231.448 146.009 225.128C133.843 221.043 121.249 216.772 109.867 210.802C105.466 208.494 98.8399 204.486 97.2743 199.501Z"/>
	<path fill="#AC3D36" d="M500.673 199.864C501.449 199.707 502.351 199.577 503.115 199.818C503.592 199.967 503.548 200.163 503.74 200.576C502.833 204.409 494.136 209.607 490.694 211.347C476.488 218.529 460.535 223.371 445.386 228.205L387.21 246.245C382.115 247.824 369.242 251.421 365.344 253.601C363.435 254.668 362.148 257.396 360.984 259.153C353.486 270.474 338.783 273.274 326.507 275.816C325.067 293.252 322.895 310.627 320.994 328.014C320.277 334.574 320.526 341.527 319.36 348.008C319.205 348.87 318.864 349.476 318.376 350.192C318.003 349.937 317.628 349.683 317.332 349.335C316.6 348.472 316.56 347.403 316.491 346.329C315.962 338.087 316.186 329.768 316.204 321.514C316.219 314.725 316.01 307.946 315.891 301.159Q315.528 287.855 315.387 274.546C315.329 269.661 315.07 264.621 315.562 259.756C321.082 260.148 330.896 259.876 336.098 258.203C348.238 254.299 342.65 243.137 344.92 239.274C345.196 238.805 345.423 238.619 345.936 238.398C348.023 237.498 352.759 237.055 355.348 236.395Q373.891 231.61 392.499 227.086L460.069 210.314L491.904 202.231C494.84 201.48 497.72 200.56 500.673 199.864Z"/>
	<path fill="#AC3D36" d="M487.689 221.517L488.644 221.523L489.004 222.032C489.427 225.854 485.167 234.023 483.162 237.291C480.058 242.35 475.957 245.243 470.655 247.744C461.969 251.841 452.348 254.268 443.111 256.782L417.511 263.903C389.075 271.785 360.679 280.15 332.01 287.138C331.614 287.137 331.218 287.066 330.826 287.017L330.484 286.543C330.392 285.179 330.25 283.646 330.893 282.383C331.298 281.588 331.945 281.083 332.74 280.718C334.749 279.796 337.366 279.443 339.515 278.839Q345.71 277.112 351.526 274.366C356.63 271.959 361.534 268.968 365.785 265.24C368.778 262.615 370.798 258.866 374.554 257.197C378.943 255.246 384.05 253.971 388.637 252.528L416.103 244.015C439.994 236.634 463.758 228.748 487.689 221.517Z"/>
	<path fill="#AC3D36" d="M112.588 221.177C117.358 222.201 121.771 224.391 126.401 225.877L159.365 236.227L205.052 250.221C212.128 252.418 220.396 254.384 227.067 257.514C230.586 259.166 232.812 262.67 235.538 265.307C239.122 268.774 243.569 271.793 248.099 273.876C250.647 275.049 253.333 275.999 256.002 276.861C259.082 277.855 268.775 279.793 270.62 282.062C271.763 283.467 271.428 285.866 271.333 287.549C271.289 287.543 271.245 287.537 271.201 287.529C267.088 286.775 263.031 285.564 258.99 284.493L239.641 279.266L189.329 265.4L159.483 257.043C150.832 254.689 141.943 252.596 133.694 249.006C127.663 246.38 122.489 243.456 118.744 237.91C116.181 234.115 111.705 225.712 112.588 221.177Z"/>
	<path fill="#AC3D36" d="M328.716 307.833C340.297 307.93 351.87 308.828 363.448 309.151L405.594 310.448C412.348 310.643 419.15 310.599 425.895 310.925C427.56 311.006 430.67 310.911 432.059 311.798L432.044 312.406C430.447 314.601 427.771 316.041 425.522 317.506C421.462 320.09 417.603 322.913 412.774 323.795C410.102 324.282 407.128 323.906 404.443 323.643C399.523 323.16 394.617 322.312 389.72 321.635L368.462 318.84C356.123 317.187 343.696 315.918 331.389 314.063C330.468 313.924 329.45 313.854 328.668 313.315C327.777 311.59 328.39 309.651 328.716 307.833Z"/>
	<path fill="#AC3D36" d="M271.305 307.356C271.375 307.366 271.45 307.359 271.515 307.386C272.202 307.671 272.493 308.255 272.718 308.93C273.134 310.173 273.388 312.419 272.779 313.592C272.134 314.026 271.523 314.191 270.774 314.347C264.348 315.685 256.63 315.728 249.987 316.578C239.631 317.903 229.231 319.132 218.894 320.57C210.694 321.711 195.76 324.532 188.092 323.734C183.674 323.274 180.084 320.603 176.53 318.189C173.577 316.119 171.032 314.211 168.71 311.424C177.543 310.149 187.04 310.761 195.993 310.543Q223.098 309.9 250.188 308.796C257.305 308.47 264.333 309.061 271.305 307.356Z"/>
	<path fill="#AC3D36" d="M327.759 317.327C336.066 317.476 347.041 320.287 355.507 321.546C360.893 322.347 366.312 322.87 371.706 323.609C376.752 324.3 381.774 325.168 386.821 325.857C391.226 326.459 401.086 327.101 404.737 328.828L404.887 329.256C403.947 330.887 401.01 331.715 399.34 332.421C394.99 334.268 389.954 336.896 385.256 337.447C376.128 338.518 343.321 327.286 332.336 324.443C330.884 324.068 328.063 323.574 327.448 322.056C326.842 320.561 327.309 318.797 327.759 317.327Z"/>
	<path fill="#AC3D36" d="M271.558 317.372C272.15 317.306 273.023 317.166 273.509 317.563C274.697 318.533 274.72 320.932 274.932 322.362Q274.167 322.721 273.377 323.022C268.761 324.826 263.492 325.704 258.713 327.085C248.003 330.181 228.055 337.454 217.488 337.333C212.564 337.276 208.112 335.178 203.692 333.242C201.022 332.082 198.461 331.106 196.267 329.135C203.887 326.37 212.478 326.233 220.462 325.121C237.505 322.746 254.651 320.581 271.558 317.372Z"/>
	<path fill="#AC3D36" d="M326.647 326.087C326.763 326.097 326.879 326.105 326.994 326.118C327.185 326.14 327.376 326.168 327.568 326.191C328.043 326.248 328.507 326.306 328.977 326.399C331.073 326.81 333.276 327.825 335.308 328.518Q341.698 330.703 348.136 332.743C356.773 335.412 365.729 337.239 374.255 340.189C375.67 340.679 378.429 341.476 379.228 342.689C378.698 343.264 378.335 343.295 377.598 343.523C365.038 345.088 354.519 346.231 342.443 341.247C337.918 339.38 328.034 335.642 326.275 330.951C325.671 329.34 325.964 327.612 326.647 326.087Z"/>
	<path fill="#AC3D36" d="M273.365 326.455C274.263 326.512 274.743 326.634 275.42 327.243C275.768 328.038 275.822 328.706 275.789 329.575C275.736 330.951 275.267 332.172 274.204 333.079C272.255 334.74 268.931 336.046 266.648 337.318C251.164 345.949 242.646 345.069 225.816 343.585C224.513 343.469 223.226 343.231 221.936 343.017C223.68 341.637 225.662 340.873 227.733 340.141C235.256 337.482 243.261 335.799 250.911 333.434C257.714 331.331 266.557 327.383 273.365 326.455Z"/>
	<path fill="#AC3D36" d="M297.693 187.304L300.745 187.314C302.726 187.326 305.4 187.144 306.861 188.765C308.707 190.812 307.957 195.55 307.735 198.082C304.901 199.228 298.417 201.244 295.51 200.025C294.743 199.703 294.719 198.945 294.512 198.238C294.645 197.302 294.71 196.435 295.202 195.605C296.626 195.502 298.059 195.443 299.481 195.307C301.715 195.095 305.782 194.061 307.272 192.241L307.213 191.676C305.761 190.937 298.314 192.556 296.055 191.767C295.416 191.544 295.011 191.218 294.824 190.554C294.65 189.94 295.025 188.693 295.385 188.168C295.968 187.32 296.761 187.438 297.693 187.304Z"/>
	<path fill="#AC3D36" d="M303.274 175.944C304.76 175.852 306.781 175.521 308.16 176.138C308.79 176.421 309.247 176.871 309.403 177.561C309.797 179.302 308.396 181.512 307.66 183.022C304.851 183.689 302.011 183.986 299.148 184.292C298.782 184.322 298.416 184.352 298.049 184.367C297.108 184.404 296.268 184.326 295.594 183.595C293.941 181.801 293.564 179.02 293.725 176.691C295.473 175.409 300.944 175.97 303.274 175.944Z"/>
	<path fill="#AC3D36" d="M305.435 220.101C306.386 219.959 307.078 219.921 308.024 220.108C308.73 220.663 308.943 221.037 309.192 221.905C309.5 222.98 309.473 224.104 308.837 225.059C307.155 227.582 299.859 228.249 296.85 228.919C296.031 229.158 295.254 229.326 294.412 229.463C293.941 229.081 294.045 229.277 293.866 228.746C293.487 227.614 293.524 224.594 294.224 223.617C295.836 221.368 302.789 220.6 305.435 220.101Z"/>
	<path fill="#AC3D36" d="M306.7 210.143C307.401 209.974 307.702 209.932 308.38 210.196C308.548 210.458 308.64 210.564 308.713 210.906C308.95 212.009 308.941 214.493 308.288 215.404C307.437 216.588 297.934 218.798 295.904 219.266C295.675 219.293 295.221 219.357 295.001 219.331C294.622 219.284 294.338 219.118 294.168 218.783C293.311 217.092 294.569 214.309 295.206 212.636C298.909 211.554 302.909 210.883 306.7 210.143Z"/>
	<path fill="#AC3D36" d="M305.899 201.597C306.431 201.554 306.904 201.567 307.435 201.595C308.118 202.207 308.737 202.916 308.762 203.89C308.783 204.684 308.399 205.414 307.88 205.989C305.585 208.531 300.598 208.762 297.417 209.001C297.148 209.065 296.605 209.202 296.347 209.237C295.584 209.342 295.466 209.148 294.875 208.71C294.053 207.043 294.687 205.096 295.002 203.35C298.842 203.139 302.19 202.64 305.899 201.597Z"/>
</svg>
